v -2.517294 3.873113 -0.643058
v -2.521199 3.988322 -0.366085
v -2.575669 3.696273 -0.407849
v -2.777137 3.900491 -0.495645
vn 0.438364 0.046597 -0.897589
vn 0.417072 0.673733 0.610029
vn 0.120596 -0.915973 0.382687
vn -0.976046 0.195649 -0.095164
vt 0.498535 0.000000
vt 0.498535 0.498535
vt 0.000000 0.000000
vt 0.500000 0.000000
vt 0.998535 0.000000
vt 0.500000 0.498535
vt 0.500000 0.500000
vt 0.998535 0.500000
vt 0.500000 0.998535
vt 0.000000 0.500000
vt 2382680980335055900000000000000000000.000000 -0.000000
vt 0.000000 0.000000
f 1/3/1 3/2/3 4/1/4
f 1/6/1 2/5/2 3/4/3
f 4/9/4 2/8/2 1/7/1
f 3/12/3 2/11/2 4/10/4
