v -0.490972 3.279132 0.600863
v -0.762295 3.367200 0.693776
v -0.736610 3.186649 0.455565
v -0.650081 3.473274 0.436558
vn 0.919994 -0.258188 0.294872
vn -0.556860 0.221198 0.800611
vn -0.417057 -0.761591 -0.496028
vn 0.053929 0.798574 -0.599476
vt 0.498535 0.000000
vt 0.498535 0.498535
vt 0.000000 0.000000
vt 0.500000 0.000000
vt 0.998535 0.000000
vt 0.500000 0.498535
vt 0.500000 0.500000
vt 0.998535 0.500000
vt 0.500000 0.998535
vt 0.000000 0.500000
vt 2596197550728172700000000000000000000.000000 -0.000000
vt 0.000000 0.000000
f 1/3/1 3/2/3 4/1/4
f 1/6/1 2/5/2 3/4/3
f 4/9/4 2/8/2 1/7/1
f 3/12/3 2/11/2 4/10/4
