v -3.053847 4.210848 -0.285609
v -2.841817 4.016051 -0.201351
v -2.807803 4.175030 -0.453487
v -3.013417 3.956970 -0.440238
vn -0.678364 0.659324 0.324212
vn 0.475737 -0.401039 0.782842
vn 0.660880 0.464351 -0.589589
vn -0.458292 -0.722633 -0.517466
vt 0.498535 0.000000
vt 0.498535 0.498535
vt 0.000000 0.000000
vt 0.500000 0.000000
vt 0.998535 0.000000
vt 0.500000 0.498535
vt 0.500000 0.500000
vt 0.998535 0.500000
vt 0.500000 0.998535
vt 0.000000 0.500000
vt 2382680980335055900000000000000000000.000000 -0.000000
vt 0.000000 0.000000
f 1/3/1 3/2/3 4/1/4
f 1/6/1 2/5/2 3/4/3
f 4/9/4 2/8/2 1/7/1
f 3/12/3 2/11/2 4/10/4
