v -2.617902 3.939024 -0.682259
v -2.520710 4.006111 -0.406478
v -2.547381 3.719348 -0.490498
v -2.792816 3.885613 -0.444455
vn 0.009814 0.280318 -0.959857
vn 0.538813 0.645507 0.541297
vn 0.393650 -0.915421 0.083936
vn -0.942303 -0.010397 0.334599
vt 0.498535 0.000000
vt 0.498535 0.498535
vt 0.000000 0.000000
vt 0.500000 0.000000
vt 0.998535 0.000000
vt 0.500000 0.498535
vt 0.500000 0.500000
vt 0.998535 0.500000
vt 0.500000 0.998535
vt 0.000000 0.500000
vt 2382680980335055900000000000000000000.000000 -0.000000
vt 0.000000 0.000000
f 1/3/1 3/2/3 4/1/4
f 1/6/1 2/5/2 3/4/3
f 4/9/4 2/8/2 1/7/1
f 3/12/3 2/11/2 4/10/4
