v -0.486572 3.277997 0.598595
v -0.757847 3.365858 0.691841
v -0.732361 3.184634 0.454119
v -0.646391 3.471355 0.434057
vn 0.921106 -0.255642 0.293617
vn -0.555494 0.222614 0.801168
vn -0.416771 -0.763836 -0.492805
vn 0.051167 0.796854 -0.602002
vt 0.498535 0.000000
vt 0.498535 0.498535
vt 0.000000 0.000000
vt 0.500000 0.000000
vt 0.998535 0.000000
vt 0.500000 0.498535
vt 0.500000 0.500000
vt 0.998535 0.500000
vt 0.500000 0.998535
vt 0.000000 0.500000
vt 2596197550728172700000000000000000000.000000 -0.000000
vt 0.000000 0.000000
f 1/3/1 3/2/3 4/1/4
f 1/6/1 2/5/2 3/4/3
f 4/9/4 2/8/2 1/7/1
f 3/12/3 2/11/2 4/10/4
