v -0.489159 3.279277 0.600512
v -0.760664 3.367052 0.693171
v -0.734594 3.186029 0.455360
v -0.648584 3.472769 0.435748
vn 0.920395 -0.255864 0.295645
vn -0.557447 0.221926 0.800001
vn -0.415551 -0.763431 -0.494460
vn 0.052609 0.797362 -0.601204
vt 0.498535 0.000000
vt 0.498535 0.498535
vt 0.000000 0.000000
vt 0.500000 0.000000
vt 0.998535 0.000000
vt 0.500000 0.498535
vt 0.500000 0.500000
vt 0.998535 0.500000
vt 0.500000 0.998535
vt 0.000000 0.500000
vt 2596197550728172700000000000000000000.000000 -0.000000
vt 0.000000 0.000000
f 1/3/1 3/2/3 4/1/4
f 1/6/1 2/5/2 3/4/3
f 4/9/4 2/8/2 1/7/1
f 3/12/3 2/11/2 4/10/4
