v -2.070277 3.755013 -0.313335
v -1.879665 3.950920 -0.189685
v -1.807127 3.812160 -0.445582
v -1.815391 3.657887 -0.188418
vn -0.964326 -0.212182 -0.158287
vn 0.073220 0.854195 0.514772
vn 0.468060 0.098883 -0.878147
vn 0.423072 -0.740861 0.521666
vt 0.498535 0.000000
vt 0.498535 0.498535
vt 0.000000 0.000000
vt 0.500000 0.000000
vt 0.998535 0.000000
vt 0.500000 0.498535
vt 0.500000 0.500000
vt 0.998535 0.500000
vt 0.500000 0.998535
vt 0.000000 0.500000
vt 2596432066089214900000000000000000000.000000 -0.000000
vt 0.000000 0.000000
f 1/3/1 3/2/3 4/1/4
f 1/6/1 2/5/2 3/4/3
f 4/9/4 2/8/2 1/7/1
f 3/12/3 2/11/2 4/10/4
