v 0.569088 2.871149 -0.452410
v 0.335125 2.683815 -0.439375
v 0.381026 2.849594 -0.685159
v 0.290499 2.980356 -0.430779
vn 0.953387 0.135641 0.269545
vn -0.320123 -0.884067 0.340510
vn -0.070266 0.018316 -0.997360
vn -0.563022 0.730075 0.387293
vt 0.498535 0.000000
vt 0.498535 0.498535
vt 0.000000 0.000000
vt 0.500000 0.000000
vt 0.998535 0.000000
vt 0.500000 0.498535
vt 0.500000 0.500000
vt 0.998535 0.500000
vt 0.500000 0.998535
vt 0.000000 0.500000
vt 2596432066089214900000000000000000000.000000 -0.000000
vt 0.000000 0.000000
f 1/3/1 3/2/3 4/1/4
f 1/6/1 2/5/2 3/4/3
f 4/9/4 2/8/2 1/7/1
f 3/12/3 2/11/2 4/10/4
