v -1.325672 3.571405 0.458080
v -1.069993 3.475922 0.582642
v -1.062352 3.674490 0.357886
v -1.142387 3.390357 0.304358
vn -0.955668 0.236033 0.176031
vn 0.436039 -0.283713 0.854036
vn 0.477629 0.797146 -0.369363
vn 0.041998 -0.749457 -0.660719
vt 0.498535 0.000000
vt 0.498535 0.498535
vt 0.000000 0.000000
vt 0.500000 0.000000
vt 0.998535 0.000000
vt 0.500000 0.498535
vt 0.500000 0.500000
vt 0.998535 0.500000
vt 0.500000 0.998535
vt 0.000000 0.500000
vt 2596197550728172700000000000000000000.000000 -0.000000
vt 0.000000 0.000000
f 1/3/1 3/2/3 4/1/4
f 1/6/1 2/5/2 3/4/3
f 4/9/4 2/8/2 1/7/1
f 3/12/3 2/11/2 4/10/4
