v -2.229362 3.953946 0.292452
v -2.462246 3.933803 0.104400
v -2.210062 4.070630 0.016744
v -2.386964 4.199315 0.222042
vn 0.505118 -0.465277 0.726893
vn -0.762528 -0.574911 -0.296697
vn 0.610181 0.169872 -0.773836
vn -0.352754 0.870333 0.343636
vt 0.498535 0.000000
vt 0.498535 0.498535
vt 0.000000 0.000000
vt 0.500000 0.000000
vt 0.998535 0.000000
vt 0.500000 0.498535
vt 0.500000 0.500000
vt 0.998535 0.500000
vt 0.500000 0.998535
vt 0.000000 0.500000
vt 2596197550728172700000000000000000000.000000 -0.000000
vt 0.000000 0.000000
f 1/3/1 3/2/3 4/1/4
f 1/6/1 2/5/2 3/4/3
f 4/9/4 2/8/2 1/7/1
f 3/12/3 2/11/2 4/10/4
