v 0.554051 2.839973 -0.414460
v 0.329780 2.640946 -0.404820
v 0.361595 2.819620 -0.643700
v 0.271137 2.934246 -0.381629
vn 0.952064 0.170241 0.254149
vn -0.268692 -0.913117 0.306629
vn -0.095506 0.059453 -0.993652
vn -0.587889 0.683386 0.432863
vt 0.498535 0.000000
vt 0.498535 0.498535
vt 0.000000 0.000000
vt 0.500000 0.000000
vt 0.998535 0.000000
vt 0.500000 0.498535
vt 0.500000 0.500000
vt 0.998535 0.500000
vt 0.500000 0.998535
vt 0.000000 0.500000
vt 2596432066089214900000000000000000000.000000 -0.000000
vt 0.000000 0.000000
f 1/3/1 3/2/3 4/1/4
f 1/6/1 2/5/2 3/4/3
f 4/9/4 2/8/2 1/7/1
f 3/12/3 2/11/2 4/10/4
