v -2.332792 3.724581 -0.232853
v -2.173566 3.975722 -0.193140
v -2.200059 3.856682 -0.467233
v -2.033996 3.718483 -0.259085
vn -0.803897 -0.513215 0.300598
vn 0.062802 0.853817 0.516771
vn -0.081407 0.205848 -0.975192
vn 0.822514 -0.546411 0.157814
vt 0.498535 0.000000
vt 0.498535 0.498535
vt 0.000000 0.000000
vt 0.500000 0.000000
vt 0.998535 0.000000
vt 0.500000 0.498535
vt 0.500000 0.500000
vt 0.998535 0.500000
vt 0.500000 0.998535
vt 0.000000 0.500000
vt 2596432066089214900000000000000000000.000000 -0.000000
vt 0.000000 0.000000
f 1/3/1 3/2/3 4/1/4
f 1/6/1 2/5/2 3/4/3
f 4/9/4 2/8/2 1/7/1
f 3/12/3 2/11/2 4/10/4
