v -1.639395 3.599828 0.435077
v -1.520391 3.875191 0.430883
v -1.666329 3.771168 0.190291
v -1.399136 3.656824 0.264697
vn -0.452244 -0.685433 0.570664
vn 0.195536 0.813412 0.547839
vn -0.598845 0.247196 -0.761761
vn 0.855548 -0.375184 -0.356755
vt 0.498535 0.000000
vt 0.498535 0.498535
vt 0.000000 0.000000
vt 0.500000 0.000000
vt 0.998535 0.000000
vt 0.500000 0.498535
vt 0.500000 0.500000
vt 0.998535 0.500000
vt 0.500000 0.998535
vt 0.000000 0.500000
vt 2596197550728172700000000000000000000.000000 -0.000000
vt 0.000000 0.000000
f 1/3/1 3/2/3 4/1/4
f 1/6/1 2/5/2 3/4/3
f 4/9/4 2/8/2 1/7/1
f 3/12/3 2/11/2 4/10/4
