v 0.573412 2.864337 -0.437293
v 0.336242 2.680619 -0.436510
v 0.391061 2.853770 -0.675285
v 0.296132 2.977410 -0.418957
vn 0.948199 0.110510 0.297837
vn -0.342767 -0.889518 0.302106
vn -0.044371 0.052987 -0.997609
vn -0.561087 0.725985 0.397652
vt 0.498535 0.000000
vt 0.498535 0.498535
vt 0.000000 0.000000
vt 0.500000 0.000000
vt 0.998535 0.000000
vt 0.500000 0.498535
vt 0.500000 0.500000
vt 0.998535 0.500000
vt 0.500000 0.998535
vt 0.000000 0.500000
vt 2596432066089214900000000000000000000.000000 -0.000000
vt 0.000000 0.000000
f 1/3/1 3/2/3 4/1/4
f 1/6/1 2/5/2 3/4/3
f 4/9/4 2/8/2 1/7/1
f 3/12/3 2/11/2 4/10/4
