v -2.628015 3.949060 -0.685359
v -2.515490 4.004976 -0.412937
v -2.543981 3.721949 -0.508265
v -2.788052 3.882676 -0.440451
vn -0.049685 0.323290 -0.944995
vn 0.562773 0.627674 0.537877
vn 0.407702 -0.912918 0.018960
vn -0.920819 -0.038036 0.388132
vt 0.498535 0.000000
vt 0.498535 0.498535
vt 0.000000 0.000000
vt 0.500000 0.000000
vt 0.998535 0.000000
vt 0.500000 0.498535
vt 0.500000 0.500000
vt 0.998535 0.500000
vt 0.500000 0.998535
vt 0.000000 0.500000
vt 2382680980335055900000000000000000000.000000 -0.000000
vt 0.000000 0.000000
f 1/3/1 3/2/3 4/1/4
f 1/6/1 2/5/2 3/4/3
f 4/9/4 2/8/2 1/7/1
f 3/12/3 2/11/2 4/10/4
