v -2.332771 3.724558 -0.232850
v -2.173499 3.975663 -0.193092
v -2.199933 3.856623 -0.467191
v -2.033967 3.718390 -0.258987
vn -0.804114 -0.513020 0.300354
vn 0.062836 0.853813 0.516773
vn -0.081049 0.205845 -0.975222
vn 0.822337 -0.546598 0.158087
vt 0.498535 0.000000
vt 0.498535 0.498535
vt 0.000000 0.000000
vt 0.500000 0.000000
vt 0.998535 0.000000
vt 0.500000 0.498535
vt 0.500000 0.500000
vt 0.998535 0.500000
vt 0.500000 0.998535
vt 0.000000 0.500000
vt 2596432066089214900000000000000000000.000000 -0.000000
vt 0.000000 0.000000
f 1/3/1 3/2/3 4/1/4
f 1/6/1 2/5/2 3/4/3
f 4/9/4 2/8/2 1/7/1
f 3/12/3 2/11/2 4/10/4
