v -2.590467 3.927611 -0.675672
v -2.521387 4.001483 -0.393231
v -2.553967 3.713079 -0.469161
v -2.793636 3.893158 -0.457650
vn 0.132815 0.238286 -0.962071
vn 0.508795 0.640408 0.575330
vn 0.331468 -0.929453 0.162006
vn -0.973103 0.050767 0.224706
vt 0.498535 0.000000
vt 0.498535 0.498535
vt 0.000000 0.000000
vt 0.500000 0.000000
vt 0.998535 0.000000
vt 0.500000 0.498535
vt 0.500000 0.500000
vt 0.998535 0.500000
vt 0.500000 0.998535
vt 0.000000 0.500000
vt 2382680980335055900000000000000000000.000000 -0.000000
vt 0.000000 0.000000
f 1/3/1 3/2/3 4/1/4
f 1/6/1 2/5/2 3/4/3
f 4/9/4 2/8/2 1/7/1
f 3/12/3 2/11/2 4/10/4
