v -2.518139 3.874235 -0.643506
v -2.521866 3.989298 -0.366470
v -2.575170 3.697035 -0.408239
v -2.777737 3.900417 -0.495445
vn 0.435959 0.048914 -0.898636
vn 0.415634 0.675256 0.609326
vn 0.125509 -0.915617 0.381958
vn -0.977116 0.191452 -0.092685
vt 0.498535 0.000000
vt 0.498535 0.498535
vt 0.000000 0.000000
vt 0.500000 0.000000
vt 0.998535 0.000000
vt 0.500000 0.498535
vt 0.500000 0.500000
vt 0.998535 0.500000
vt 0.500000 0.998535
vt 0.000000 0.500000
vt 2382680980335055900000000000000000000.000000 -0.000000
vt 0.000000 0.000000
f 1/3/1 3/2/3 4/1/4
f 1/6/1 2/5/2 3/4/3
f 4/9/4 2/8/2 1/7/1
f 3/12/3 2/11/2 4/10/4
