v -1.657855 3.626041 0.478172
v -1.809356 3.866561 0.574097
v -1.820623 3.787716 0.284858
v -1.567752 3.901210 0.399652
vn 0.305038 -0.921766 0.239372
vn -0.519594 0.387441 0.761520
vn -0.580929 -0.041733 -0.812884
vn 0.795492 0.576054 -0.188028
vt 0.498535 0.000000
vt 0.498535 0.498535
vt 0.000000 0.000000
vt 0.500000 0.000000
vt 0.998535 0.000000
vt 0.500000 0.498535
vt 0.500000 0.500000
vt 0.998535 0.500000
vt 0.500000 0.998535
vt 0.000000 0.500000
vt 2596197550728172700000000000000000000.000000 -0.000000
vt 0.000000 0.000000
f 1/3/1 3/2/3 4/1/4
f 1/6/1 2/5/2 3/4/3
f 4/9/4 2/8/2 1/7/1
f 3/12/3 2/11/2 4/10/4
