v -2.616356 3.938397 -0.681961
v -2.520715 4.005833 -0.405723
v -2.547812 3.718956 -0.489217
v -2.792976 3.886156 -0.445160
vn 0.016935 0.277932 -0.960452
vn 0.537492 0.645018 0.543189
vn 0.390011 -0.916529 0.088692
vn -0.944467 -0.006414 0.328544
vt 0.498535 0.000000
vt 0.498535 0.498535
vt 0.000000 0.000000
vt 0.500000 0.000000
vt 0.998535 0.000000
vt 0.500000 0.498535
vt 0.500000 0.500000
vt 0.998535 0.500000
vt 0.500000 0.998535
vt 0.000000 0.500000
vt 2382680980335055900000000000000000000.000000 -0.000000
vt 0.000000 0.000000
f 1/3/1 3/2/3 4/1/4
f 1/6/1 2/5/2 3/4/3
f 4/9/4 2/8/2 1/7/1
f 3/12/3 2/11/2 4/10/4
