v -1.716781 3.835690 -0.285430
v -1.465064 3.673111 -0.299873
v -1.700562 3.600476 -0.470943
v -1.711574 3.557072 -0.174299
vn -0.371689 0.920455 0.120870
vn 0.998476 0.035508 0.042255
vn -0.283407 -0.359863 -0.888920
vn -0.343347 -0.596116 0.725782
vt 0.498535 0.000000
vt 0.498535 0.498535
vt 0.000000 0.000000
vt 0.500000 0.000000
vt 0.998535 0.000000
vt 0.500000 0.498535
vt 0.500000 0.500000
vt 0.998535 0.500000
vt 0.500000 0.998535
vt 0.000000 0.500000
vt 2596432066089214900000000000000000000.000000 -0.000000
vt 0.000000 0.000000
f 1/3/1 3/2/3 4/1/4
f 1/6/1 2/5/2 3/4/3
f 4/9/4 2/8/2 1/7/1
f 3/12/3 2/11/2 4/10/4
