v -2.512025 3.858340 -0.641491
v -2.515173 3.983600 -0.368907
v -2.581389 3.692771 -0.401119
v -2.772646 3.901943 -0.499457
vn 0.453349 -0.004495 -0.891322
vn 0.436178 0.677350 0.592407
vn 0.075762 -0.905717 0.417057
vn -0.965301 0.232871 -0.118178
vt 0.498535 0.000000
vt 0.498535 0.498535
vt 0.000000 0.000000
vt 0.500000 0.000000
vt 0.998535 0.000000
vt 0.500000 0.498535
vt 0.500000 0.500000
vt 0.998535 0.500000
vt 0.500000 0.998535
vt 0.000000 0.500000
vt 2382680980335055900000000000000000000.000000 -0.000000
vt 0.000000 0.000000
f 1/3/1 3/2/3 4/1/4
f 1/6/1 2/5/2 3/4/3
f 4/9/4 2/8/2 1/7/1
f 3/12/3 2/11/2 4/10/4
