v -1.833857 3.792071 -0.288134
v -1.535036 3.768784 -0.301016
v -1.706672 3.595126 -0.475325
v -1.697577 3.548017 -0.179182
vn -0.765150 0.631799 0.123996
vn 0.861405 0.505053 0.053878
vn -0.072864 -0.440212 -0.894932
vn -0.023353 -0.696637 0.717043
vt 0.498535 0.000000
vt 0.498535 0.498535
vt 0.000000 0.000000
vt 0.500000 0.000000
vt 0.998535 0.000000
vt 0.500000 0.498535
vt 0.500000 0.500000
vt 0.998535 0.500000
vt 0.500000 0.998535
vt 0.000000 0.500000
vt 2596432066089214900000000000000000000.000000 -0.000000
vt 0.000000 0.000000
f 1/3/1 3/2/3 4/1/4
f 1/6/1 2/5/2 3/4/3
f 4/9/4 2/8/2 1/7/1
f 3/12/3 2/11/2 4/10/4
