v -1.513890 3.823185 -0.206116
v -1.387760 3.563417 -0.287443
v -1.568866 3.708287 -0.477740
v -1.682550 3.576573 -0.233343
vn 0.132689 0.845430 0.517341
vn 0.819255 -0.568547 0.074667
vn -0.166557 0.220019 -0.961171
vn -0.785364 -0.496929 0.369141
vt 0.498535 0.000000
vt 0.498535 0.498535
vt 0.000000 0.000000
vt 0.500000 0.000000
vt 0.998535 0.000000
vt 0.500000 0.498535
vt 0.500000 0.500000
vt 0.998535 0.500000
vt 0.500000 0.998535
vt 0.000000 0.500000
vt 2596432066089214900000000000000000000.000000 -0.000000
vt 0.000000 0.000000
f 1/3/1 3/2/3 4/1/4
f 1/6/1 2/5/2 3/4/3
f 4/9/4 2/8/2 1/7/1
f 3/12/3 2/11/2 4/10/4
