v -1.856834 3.804873 0.407394
v -2.109806 3.894001 0.272984
v -1.858469 3.860608 0.112617
v -1.882676 4.086815 0.308184
vn 0.381638 -0.580806 0.719039
vn -0.995336 -0.095650 -0.012569
vn 0.372753 -0.277420 -0.885491
vn 0.240969 0.953881 0.179013
vt 0.498535 0.000000
vt 0.498535 0.498535
vt 0.000000 0.000000
vt 0.500000 0.000000
vt 0.998535 0.000000
vt 0.500000 0.498535
vt 0.500000 0.500000
vt 0.998535 0.500000
vt 0.500000 0.998535
vt 0.000000 0.500000
vt 2596197550728172700000000000000000000.000000 -0.000000
vt 0.000000 0.000000
f 1/3/1 3/2/3 4/1/4
f 1/6/1 2/5/2 3/4/3
f 4/9/4 2/8/2 1/7/1
f 3/12/3 2/11/2 4/10/4
