v -1.673426 3.638047 0.479158
v -1.838780 3.873423 0.564366
v -1.834587 3.789425 0.276392
v -1.591740 3.915484 0.399423
vn 0.333157 -0.903841 0.268475
vn -0.566881 0.377367 0.732284
vn -0.544062 -0.079858 -0.835236
vn 0.777794 0.606327 -0.165543
vt 0.498535 0.000000
vt 0.498535 0.498535
vt 0.000000 0.000000
vt 0.500000 0.000000
vt 0.998535 0.000000
vt 0.500000 0.498535
vt 0.500000 0.500000
vt 0.998535 0.500000
vt 0.500000 0.998535
vt 0.000000 0.500000
vt 2596197550728172700000000000000000000.000000 -0.000000
vt 0.000000 0.000000
f 1/3/1 3/2/3 4/1/4
f 1/6/1 2/5/2 3/4/3
f 4/9/4 2/8/2 1/7/1
f 3/12/3 2/11/2 4/10/4
