v -2.950029 4.233343 -0.277502
v -2.897039 3.966870 -0.150279
v -2.716507 4.067920 -0.367537
v -2.996064 3.981028 -0.433117
vn -0.327229 0.931101 0.161159
vn -0.038834 -0.519396 0.853651
vn 0.943856 0.030668 -0.328932
vn -0.577825 -0.442350 -0.685890
vt 0.498535 0.000000
vt 0.498535 0.498535
vt 0.000000 0.000000
vt 0.500000 0.000000
vt 0.998535 0.000000
vt 0.500000 0.498535
vt 0.500000 0.500000
vt 0.998535 0.500000
vt 0.500000 0.998535
vt 0.000000 0.500000
vt 2382680980335055900000000000000000000.000000 -0.000000
vt 0.000000 0.000000
f 1/3/1 3/2/3 4/1/4
f 1/6/1 2/5/2 3/4/3
f 4/9/4 2/8/2 1/7/1
f 3/12/3 2/11/2 4/10/4
