v -2.511845 3.857674 -0.641436
v -2.515003 3.983644 -0.369179
v -2.581580 3.692820 -0.400680
v -2.772500 3.901986 -0.499683
vn 0.453911 -0.007402 -0.891016
vn 0.436686 0.678313 0.590929
vn 0.074309 -0.904731 0.419452
vn -0.964919 0.233827 -0.119401
vt 0.498535 0.000000
vt 0.498535 0.498535
vt 0.000000 0.000000
vt 0.500000 0.000000
vt 0.998535 0.000000
vt 0.500000 0.498535
vt 0.500000 0.500000
vt 0.998535 0.500000
vt 0.500000 0.998535
vt 0.000000 0.500000
vt 2382680980335055900000000000000000000.000000 -0.000000
vt 0.000000 0.000000
f 1/3/1 3/2/3 4/1/4
f 1/6/1 2/5/2 3/4/3
f 4/9/4 2/8/2 1/7/1
f 3/12/3 2/11/2 4/10/4
