v 0.555290 2.841120 -0.414526
v 0.330920 2.642208 -0.404788
v 0.362755 2.820830 -0.643704
v 0.272433 2.935542 -0.381623
vn 0.952227 0.169797 0.253838
vn -0.269063 -0.912934 0.306849
vn -0.095774 0.059351 -0.993632
vn -0.587413 0.683749 0.432936
vt 0.498535 0.000000
vt 0.498535 0.498535
vt 0.000000 0.000000
vt 0.500000 0.000000
vt 0.998535 0.000000
vt 0.500000 0.498535
vt 0.500000 0.500000
vt 0.998535 0.500000
vt 0.500000 0.998535
vt 0.000000 0.500000
vt 2596432066089214900000000000000000000.000000 -0.000000
vt 0.000000 0.000000
f 1/3/1 3/2/3 4/1/4
f 1/6/1 2/5/2 3/4/3
f 4/9/4 2/8/2 1/7/1
f 3/12/3 2/11/2 4/10/4
