v -2.627200 3.947478 -0.685208
v -2.515534 4.004739 -0.412712
v -2.544477 3.721216 -0.506419
v -2.788339 3.883045 -0.440501
vn -0.045235 0.317648 -0.947129
vn 0.562551 0.629353 0.536145
vn 0.405022 -0.913935 0.026057
vn -0.922366 -0.033057 0.384901
vt 0.498535 0.000000
vt 0.498535 0.498535
vt 0.000000 0.000000
vt 0.500000 0.000000
vt 0.998535 0.000000
vt 0.500000 0.498535
vt 0.500000 0.500000
vt 0.998535 0.500000
vt 0.500000 0.998535
vt 0.000000 0.500000
vt 2382680980335055900000000000000000000.000000 -0.000000
vt 0.000000 0.000000
f 1/3/1 3/2/3 4/1/4
f 1/6/1 2/5/2 3/4/3
f 4/9/4 2/8/2 1/7/1
f 3/12/3 2/11/2 4/10/4
