v -2.636965 3.951335 -0.687283
v -2.519467 4.009862 -0.417522
v -2.547556 3.726022 -0.510526
v -2.791520 3.885211 -0.438810
vn -0.071228 0.316938 -0.945768
vn 0.568301 0.635533 0.522620
vn 0.415419 -0.909483 0.016359
vn -0.912522 -0.042980 0.406763
vt 0.498535 0.000000
vt 0.498535 0.498535
vt 0.000000 0.000000
vt 0.500000 0.000000
vt 0.998535 0.000000
vt 0.500000 0.498535
vt 0.500000 0.500000
vt 0.998535 0.500000
vt 0.500000 0.998535
vt 0.000000 0.500000
vt 2382680980335055900000000000000000000.000000 -0.000000
vt 0.000000 0.000000
f 1/3/1 3/2/3 4/1/4
f 1/6/1 2/5/2 3/4/3
f 4/9/4 2/8/2 1/7/1
f 3/12/3 2/11/2 4/10/4
