v -1.552233 3.826217 -0.219709
v -1.411155 3.570641 -0.288847
v -1.620769 3.680826 -0.473023
v -1.699922 3.565356 -0.207686
vn 0.102261 0.900610 0.422427
vn 0.870193 -0.490550 0.046099
vn -0.270793 0.109223 -0.956421
vn -0.701638 -0.519310 0.487874
vt 0.498535 0.000000
vt 0.498535 0.498535
vt 0.000000 0.000000
vt 0.500000 0.000000
vt 0.998535 0.000000
vt 0.500000 0.498535
vt 0.500000 0.500000
vt 0.998535 0.500000
vt 0.500000 0.998535
vt 0.000000 0.500000
vt 2596432066089214900000000000000000000.000000 -0.000000
vt 0.000000 0.000000
f 1/3/1 3/2/3 4/1/4
f 1/6/1 2/5/2 3/4/3
f 4/9/4 2/8/2 1/7/1
f 3/12/3 2/11/2 4/10/4
