v -2.626232 3.946677 -0.685069
v -2.515819 4.004709 -0.412226
v -2.544744 3.720908 -0.505093
v -2.788674 3.883343 -0.440938
vn -0.040075 0.314436 -0.948432
vn 0.560891 0.630334 0.536732
vn 0.403455 -0.914467 0.031212
vn -0.924299 -0.030293 0.380465
vt 0.498535 0.000000
vt 0.498535 0.498535
vt 0.000000 0.000000
vt 0.500000 0.000000
vt 0.998535 0.000000
vt 0.500000 0.498535
vt 0.500000 0.500000
vt 0.998535 0.500000
vt 0.500000 0.998535
vt 0.000000 0.500000
vt 2382680980335055900000000000000000000.000000 -0.000000
vt 0.000000 0.000000
f 1/3/1 3/2/3 4/1/4
f 1/6/1 2/5/2 3/4/3
f 4/9/4 2/8/2 1/7/1
f 3/12/3 2/11/2 4/10/4
