v -2.987715 4.229472 -0.260319
v -2.890284 3.964627 -0.158505
v -2.741591 4.104805 -0.378151
v -3.011161 3.984813 -0.432339
vn -0.435598 0.863004 0.255888
vn 0.094710 -0.578633 0.810070
vn 0.904087 0.184418 -0.385509
vn -0.563232 -0.468770 -0.680459
vt 0.498535 0.000000
vt 0.498535 0.498535
vt 0.000000 0.000000
vt 0.500000 0.000000
vt 0.998535 0.000000
vt 0.500000 0.498535
vt 0.500000 0.500000
vt 0.998535 0.500000
vt 0.500000 0.998535
vt 0.000000 0.500000
vt 2382680980335055900000000000000000000.000000 -0.000000
vt 0.000000 0.000000
f 1/3/1 3/2/3 4/1/4
f 1/6/1 2/5/2 3/4/3
f 4/9/4 2/8/2 1/7/1
f 3/12/3 2/11/2 4/10/4
