v -2.632684 3.949862 -0.686595
v -2.517082 4.007174 -0.415755
v -2.544871 3.723738 -0.510073
v -2.789139 3.882979 -0.439518
vn -0.063888 0.320730 -0.945013
vn 0.565318 0.632706 0.529243
vn 0.414069 -0.910108 0.015828
vn -0.915528 -0.043319 0.399916
vt 0.498535 0.000000
vt 0.498535 0.498535
vt 0.000000 0.000000
vt 0.500000 0.000000
vt 0.998535 0.000000
vt 0.500000 0.498535
vt 0.500000 0.500000
vt 0.998535 0.500000
vt 0.500000 0.998535
vt 0.000000 0.500000
vt 2382680980335055900000000000000000000.000000 -0.000000
vt 0.000000 0.000000
f 1/3/1 3/2/3 4/1/4
f 1/6/1 2/5/2 3/4/3
f 4/9/4 2/8/2 1/7/1
f 3/12/3 2/11/2 4/10/4
