v -2.802028 4.127366 -0.545263
v -2.697218 4.132877 -0.264218
v -2.635106 3.900056 -0.442936
v -2.913990 3.939711 -0.339718
vn -0.217404 0.557190 -0.801421
vn 0.353064 0.587189 0.728392
vn 0.691162 -0.680106 -0.244438
vn -0.826854 -0.464263 0.317446
vt 0.498535 0.000000
vt 0.498535 0.498535
vt 0.000000 0.000000
vt 0.500000 0.000000
vt 0.998535 0.000000
vt 0.500000 0.498535
vt 0.500000 0.500000
vt 0.998535 0.500000
vt 0.500000 0.998535
vt 0.000000 0.500000
vt 2382680980335055900000000000000000000.000000 -0.000000
vt 0.000000 0.000000
f 1/3/1 3/2/3 4/1/4
f 1/6/1 2/5/2 3/4/3
f 4/9/4 2/8/2 1/7/1
f 3/12/3 2/11/2 4/10/4
