v -0.477450 3.277717 0.596172
v -0.747635 3.366057 0.692095
v -0.724906 3.183299 0.455269
v -0.639339 3.469923 0.432309
vn 0.924703 -0.253293 0.284196
vn -0.545957 0.227574 0.806313
vn -0.422242 -0.767225 -0.482781
vn 0.043502 0.792937 -0.607748
vt 0.498535 0.000000
vt 0.498535 0.498535
vt 0.000000 0.000000
vt 0.500000 0.000000
vt 0.998535 0.000000
vt 0.500000 0.498535
vt 0.500000 0.500000
vt 0.998535 0.500000
vt 0.500000 0.998535
vt 0.000000 0.500000
vt 2596197550728172700000000000000000000.000000 -0.000000
vt 0.000000 0.000000
f 1/3/1 3/2/3 4/1/4
f 1/6/1 2/5/2 3/4/3
f 4/9/4 2/8/2 1/7/1
f 3/12/3 2/11/2 4/10/4
