v -2.014234 3.765988 -0.295513
v -1.771301 3.938810 -0.262080
v -1.778925 3.730975 -0.478288
v -1.759224 3.647660 -0.190760
vn -0.997805 -0.026510 0.060678
vn 0.324535 0.914217 0.242659
vn 0.283034 -0.217088 -0.934219
vn 0.390268 -0.670592 0.630871
vt 0.498535 0.000000
vt 0.498535 0.498535
vt 0.000000 0.000000
vt 0.500000 0.000000
vt 0.998535 0.000000
vt 0.500000 0.498535
vt 0.500000 0.500000
vt 0.998535 0.500000
vt 0.500000 0.998535
vt 0.000000 0.500000
vt 2596432066089214900000000000000000000.000000 -0.000000
vt 0.000000 0.000000
f 1/3/1 3/2/3 4/1/4
f 1/6/1 2/5/2 3/4/3
f 4/9/4 2/8/2 1/7/1
f 3/12/3 2/11/2 4/10/4
