v -2.512599 3.860114 -0.641727
v -2.515668 3.983613 -0.368340
v -2.580939 3.692769 -0.402293
v -2.773102 3.901902 -0.498934
vn 0.451689 0.002786 -0.892171
vn 0.434945 0.675050 0.595928
vn 0.079674 -0.908101 0.411101
vn -0.966319 0.230276 -0.114892
vt 0.498535 0.000000
vt 0.498535 0.498535
vt 0.000000 0.000000
vt 0.500000 0.000000
vt 0.998535 0.000000
vt 0.500000 0.498535
vt 0.500000 0.500000
vt 0.998535 0.500000
vt 0.500000 0.998535
vt 0.000000 0.500000
vt 2382680980335055900000000000000000000.000000 -0.000000
vt 0.000000 0.000000
f 1/3/1 3/2/3 4/1/4
f 1/6/1 2/5/2 3/4/3
f 4/9/4 2/8/2 1/7/1
f 3/12/3 2/11/2 4/10/4
