v -2.146076 3.745018 -0.286878
v -1.956360 3.953924 -0.185054
v -1.903246 3.818058 -0.447196
v -1.873264 3.665712 -0.190499
vn -0.959847 -0.275747 -0.051554
vn 0.072818 0.861388 0.502701
vn 0.361929 0.121824 -0.924211
vn 0.525124 -0.707430 0.473062
vt 0.498535 0.000000
vt 0.498535 0.498535
vt 0.000000 0.000000
vt 0.500000 0.000000
vt 0.998535 0.000000
vt 0.500000 0.498535
vt 0.500000 0.500000
vt 0.998535 0.500000
vt 0.500000 0.998535
vt 0.000000 0.500000
vt 2596432066089214900000000000000000000.000000 -0.000000
vt 0.000000 0.000000
f 1/3/1 3/2/3 4/1/4
f 1/6/1 2/5/2 3/4/3
f 4/9/4 2/8/2 1/7/1
f 3/12/3 2/11/2 4/10/4
