v -2.627237 3.947668 -0.685177
v -2.515565 4.004748 -0.412646
v -2.544465 3.721289 -0.506559
v -2.788351 3.883028 -0.440509
vn -0.045341 0.318337 -0.946893
vn 0.562473 0.629055 0.536577
vn 0.405179 -0.913885 0.025363
vn -0.922339 -0.033497 0.384928
vt 0.498535 0.000000
vt 0.498535 0.498535
vt 0.000000 0.000000
vt 0.500000 0.000000
vt 0.998535 0.000000
vt 0.500000 0.498535
vt 0.500000 0.500000
vt 0.998535 0.500000
vt 0.500000 0.998535
vt 0.000000 0.500000
vt 2382680980335055900000000000000000000.000000 -0.000000
vt 0.000000 0.000000
f 1/3/1 3/2/3 4/1/4
f 1/6/1 2/5/2 3/4/3
f 4/9/4 2/8/2 1/7/1
f 3/12/3 2/11/2 4/10/4
