v -2.331911 3.724670 -0.233144
v -2.172384 3.975487 -0.192599
v -2.198478 3.857028 -0.466982
v -2.033069 3.718163 -0.258755
vn -0.805321 -0.512565 0.297884
vn 0.063016 0.852702 0.518584
vn -0.079023 0.207891 -0.974955
vn 0.821339 -0.547984 0.158479
vt 0.498535 0.000000
vt 0.498535 0.498535
vt 0.000000 0.000000
vt 0.500000 0.000000
vt 0.998535 0.000000
vt 0.500000 0.498535
vt 0.500000 0.500000
vt 0.998535 0.500000
vt 0.500000 0.998535
vt 0.000000 0.500000
vt 2596432066089214900000000000000000000.000000 -0.000000
vt 0.000000 0.000000
f 1/3/1 3/2/3 4/1/4
f 1/6/1 2/5/2 3/4/3
f 4/9/4 2/8/2 1/7/1
f 3/12/3 2/11/2 4/10/4
