v -2.627558 3.947971 -0.685427
v -2.515645 4.004989 -0.412981
v -2.544297 3.721563 -0.507073
v -2.788310 3.882947 -0.440623
vn -0.046829 0.318985 -0.946602
vn 0.562300 0.629360 0.536400
vn 0.406353 -0.913395 0.024215
vn -0.921853 -0.034941 0.385961
vt 0.498535 0.000000
vt 0.498535 0.498535
vt 0.000000 0.000000
vt 0.500000 0.000000
vt 0.998535 0.000000
vt 0.500000 0.498535
vt 0.500000 0.500000
vt 0.998535 0.500000
vt 0.500000 0.998535
vt 0.000000 0.500000
vt 2382680980335055900000000000000000000.000000 -0.000000
vt 0.000000 0.000000
f 1/3/1 3/2/3 4/1/4
f 1/6/1 2/5/2 3/4/3
f 4/9/4 2/8/2 1/7/1
f 3/12/3 2/11/2 4/10/4
