v -2.561152 3.915595 -0.666366
v -2.522247 3.997010 -0.380254
v -2.560666 3.707766 -0.450010
v -2.790245 3.899471 -0.473351
vn 0.258163 0.193957 -0.946432
vn 0.469893 0.637137 0.610947
vn 0.260789 -0.937295 0.231230
vn -0.988867 0.106208 0.104222
vt 0.498535 0.000000
vt 0.498535 0.498535
vt 0.000000 0.000000
vt 0.500000 0.000000
vt 0.998535 0.000000
vt 0.500000 0.498535
vt 0.500000 0.500000
vt 0.998535 0.500000
vt 0.500000 0.998535
vt 0.000000 0.500000
vt 2382680980335055900000000000000000000.000000 -0.000000
vt 0.000000 0.000000
f 1/3/1 3/2/3 4/1/4
f 1/6/1 2/5/2 3/4/3
f 4/9/4 2/8/2 1/7/1
f 3/12/3 2/11/2 4/10/4
