v -1.528969 3.622545 0.410042
v -1.276247 3.749215 0.510495
v -1.338424 3.750738 0.217008
v -1.263905 3.494036 0.353218
vn -0.963901 -0.171933 0.203306
vn 0.411719 0.517536 0.750096
vn 0.073271 0.525835 -0.847425
vn 0.478908 -0.871443 -0.105994
vt 0.498535 0.000000
vt 0.498535 0.498535
vt 0.000000 0.000000
vt 0.500000 0.000000
vt 0.998535 0.000000
vt 0.500000 0.498535
vt 0.500000 0.500000
vt 0.998535 0.500000
vt 0.500000 0.998535
vt 0.000000 0.500000
vt 2596197550728172700000000000000000000.000000 -0.000000
vt 0.000000 0.000000
f 1/3/1 3/2/3 4/1/4
f 1/6/1 2/5/2 3/4/3
f 4/9/4 2/8/2 1/7/1
f 3/12/3 2/11/2 4/10/4
