v -2.511971 3.858159 -0.641475
v -2.515127 3.983624 -0.368986
v -2.581433 3.692792 -0.400992
v -2.772603 3.901953 -0.499521
vn 0.453507 -0.005311 -0.891237
vn 0.436292 0.677651 0.591979
vn 0.075390 -0.905430 0.417748
vn -0.965203 0.233099 -0.118527
vt 0.498535 0.000000
vt 0.498535 0.498535
vt 0.000000 0.000000
vt 0.500000 0.000000
vt 0.998535 0.000000
vt 0.500000 0.498535
vt 0.500000 0.500000
vt 0.998535 0.500000
vt 0.500000 0.998535
vt 0.000000 0.500000
vt 2382680980335055900000000000000000000.000000 -0.000000
vt 0.000000 0.000000
f 1/3/1 3/2/3 4/1/4
f 1/6/1 2/5/2 3/4/3
f 4/9/4 2/8/2 1/7/1
f 3/12/3 2/11/2 4/10/4
