v -1.324736 3.799212 -0.173942
v -1.158642 3.560716 -0.248341
v -1.287769 3.726306 -0.462598
v -1.456353 3.553379 -0.284614
vn -0.097213 0.758280 0.644641
vn 0.806877 -0.539909 0.239684
vn 0.104004 0.361443 -0.926575
vn -0.813637 -0.579837 0.042236
vt 0.498535 0.000000
vt 0.498535 0.498535
vt 0.000000 0.000000
vt 0.500000 0.000000
vt 0.998535 0.000000
vt 0.500000 0.498535
vt 0.500000 0.500000
vt 0.998535 0.500000
vt 0.500000 0.998535
vt 0.000000 0.500000
vt 2596432066089214900000000000000000000.000000 -0.000000
vt 0.000000 0.000000
f 1/3/1 3/2/3 4/1/4
f 1/6/1 2/5/2 3/4/3
f 4/9/4 2/8/2 1/7/1
f 3/12/3 2/11/2 4/10/4
