v -1.851793 3.788891 -0.268633
v -1.551919 3.796929 -0.272228
v -1.700091 3.635064 -0.476786
v -1.694267 3.545842 -0.190415
vn -0.828858 0.529130 0.181703
vn 0.803431 0.572895 0.162143
vn -0.003118 -0.308183 -0.951322
vn 0.028584 -0.793833 0.607463
vt 0.498535 0.000000
vt 0.498535 0.498535
vt 0.000000 0.000000
vt 0.500000 0.000000
vt 0.998535 0.000000
vt 0.500000 0.498535
vt 0.500000 0.500000
vt 0.998535 0.500000
vt 0.500000 0.998535
vt 0.000000 0.500000
vt 2596432066089214900000000000000000000.000000 -0.000000
vt 0.000000 0.000000
f 1/3/1 3/2/3 4/1/4
f 1/6/1 2/5/2 3/4/3
f 4/9/4 2/8/2 1/7/1
f 3/12/3 2/11/2 4/10/4
