v -2.512790 3.860614 -0.641808
v -2.515814 3.983655 -0.368214
v -2.580780 3.692794 -0.402607
v -2.773244 3.901871 -0.498770
vn 0.451082 0.004780 -0.892470
vn 0.434586 0.674549 0.596757
vn 0.080976 -0.908694 0.409535
vn -0.966656 0.229375 -0.113859
vt 0.498535 0.000000
vt 0.498535 0.498535
vt 0.000000 0.000000
vt 0.500000 0.000000
vt 0.998535 0.000000
vt 0.500000 0.498535
vt 0.500000 0.500000
vt 0.998535 0.500000
vt 0.500000 0.998535
vt 0.000000 0.500000
vt 2382680980335055900000000000000000000.000000 -0.000000
vt 0.000000 0.000000
f 1/3/1 3/2/3 4/1/4
f 1/6/1 2/5/2 3/4/3
f 4/9/4 2/8/2 1/7/1
f 3/12/3 2/11/2 4/10/4
