v -3.040925 4.217059 -0.276987
v -2.847317 4.004489 -0.191361
v -2.793792 4.165199 -0.438972
v -3.016184 3.963864 -0.435978
vn -0.633427 0.704413 0.320269
vn 0.420397 -0.452692 0.786344
vn 0.711745 0.422117 -0.561459
vn -0.498754 -0.673832 -0.545156
vt 0.498535 0.000000
vt 0.498535 0.498535
vt 0.000000 0.000000
vt 0.500000 0.000000
vt 0.998535 0.000000
vt 0.500000 0.498535
vt 0.500000 0.500000
vt 0.998535 0.500000
vt 0.500000 0.998535
vt 0.000000 0.500000
vt 2382680980335055900000000000000000000.000000 -0.000000
vt 0.000000 0.000000
f 1/3/1 3/2/3 4/1/4
f 1/6/1 2/5/2 3/4/3
f 4/9/4 2/8/2 1/7/1
f 3/12/3 2/11/2 4/10/4
