v -1.468735 3.626610 0.423654
v -1.193764 3.664780 0.537403
v -1.248968 3.736125 0.251282
v -1.244000 3.448326 0.335838
vn -0.979059 0.041648 0.199273
vn 0.517657 0.249397 0.818433
vn 0.217168 0.637751 -0.738994
vn 0.244228 -0.928796 -0.278730
vt 0.498535 0.000000
vt 0.498535 0.498535
vt 0.000000 0.000000
vt 0.500000 0.000000
vt 0.998535 0.000000
vt 0.500000 0.498535
vt 0.500000 0.500000
vt 0.998535 0.500000
vt 0.500000 0.998535
vt 0.000000 0.500000
vt 2596197550728172700000000000000000000.000000 -0.000000
vt 0.000000 0.000000
f 1/3/1 3/2/3 4/1/4
f 1/6/1 2/5/2 3/4/3
f 4/9/4 2/8/2 1/7/1
f 3/12/3 2/11/2 4/10/4
