v -1.615405 3.603271 0.416541
v -1.454249 3.855535 0.436452
v -1.532626 3.748447 0.167393
v -1.327495 3.604387 0.332228
vn -0.723743 -0.542350 0.426677
vn 0.153472 0.830758 0.535059
vn -0.273158 0.247857 -0.929490
vn 0.843427 -0.536275 -0.032260
vt 0.498535 0.000000
vt 0.498535 0.498535
vt 0.000000 0.000000
vt 0.500000 0.000000
vt 0.998535 0.000000
vt 0.500000 0.498535
vt 0.500000 0.500000
vt 0.998535 0.500000
vt 0.500000 0.998535
vt 0.000000 0.500000
vt 2596197550728172700000000000000000000.000000 -0.000000
vt 0.000000 0.000000
f 1/3/1 3/2/3 4/1/4
f 1/6/1 2/5/2 3/4/3
f 4/9/4 2/8/2 1/7/1
f 3/12/3 2/11/2 4/10/4
