v -2.332803 3.724583 -0.232851
v -2.173581 3.975727 -0.193144
v -2.200083 3.856686 -0.467236
v -2.034008 3.718491 -0.259096
vn -0.803873 -0.513232 0.300633
vn 0.062805 0.853818 0.516769
vn -0.081452 0.205845 -0.975189
vn 0.822531 -0.546395 0.157780
vt 0.498535 0.000000
vt 0.498535 0.498535
vt 0.000000 0.000000
vt 0.500000 0.000000
vt 0.998535 0.000000
vt 0.500000 0.498535
vt 0.500000 0.500000
vt 0.998535 0.500000
vt 0.500000 0.998535
vt 0.000000 0.500000
vt 2596432066089214900000000000000000000.000000 -0.000000
vt 0.000000 0.000000
f 1/3/1 3/2/3 4/1/4
f 1/6/1 2/5/2 3/4/3
f 4/9/4 2/8/2 1/7/1
f 3/12/3 2/11/2 4/10/4
