v -1.646134 3.610988 0.454924
v -1.553943 3.894626 0.422455
v -1.712602 3.762612 0.204734
v -1.430020 3.676803 0.257528
vn -0.329104 -0.681866 0.653260
vn 0.172731 0.862026 0.476525
vn -0.690894 0.143442 -0.708583
vn 0.847262 -0.323613 -0.421214
vt 0.498535 0.000000
vt 0.498535 0.498535
vt 0.000000 0.000000
vt 0.500000 0.000000
vt 0.998535 0.000000
vt 0.500000 0.498535
vt 0.500000 0.500000
vt 0.998535 0.500000
vt 0.500000 0.998535
vt 0.000000 0.500000
vt 2596197550728172700000000000000000000.000000 -0.000000
vt 0.000000 0.000000
f 1/3/1 3/2/3 4/1/4
f 1/6/1 2/5/2 3/4/3
f 4/9/4 2/8/2 1/7/1
f 3/12/3 2/11/2 4/10/4
