v -1.498347 3.785189 -0.194139
v -1.292465 3.581771 -0.273109
v -1.457431 3.717734 -0.483586
v -1.584375 3.517771 -0.299459
vn -0.218771 0.732502 0.644655
vn 0.901898 -0.374747 0.214813
vn 0.003944 0.365335 -0.930868
vn -0.687038 -0.723106 0.071383
vt 0.498535 0.000000
vt 0.498535 0.498535
vt 0.000000 0.000000
vt 0.500000 0.000000
vt 0.998535 0.000000
vt 0.500000 0.498535
vt 0.500000 0.500000
vt 0.998535 0.500000
vt 0.500000 0.998535
vt 0.000000 0.500000
vt 2596432066089214900000000000000000000.000000 -0.000000
vt 0.000000 0.000000
f 1/3/1 3/2/3 4/1/4
f 1/6/1 2/5/2 3/4/3
f 4/9/4 2/8/2 1/7/1
f 3/12/3 2/11/2 4/10/4
