v -1.394540 3.609272 0.435210
v -1.127115 3.562633 0.562934
v -1.144142 3.697474 0.295481
v -1.207013 3.405190 0.320379
vn -0.959840 0.221169 0.172601
vn 0.495800 -0.032718 0.867820
vn 0.403120 0.701260 -0.587987
vn 0.060918 -0.889706 -0.452452
vt 0.498535 0.000000
vt 0.498535 0.498535
vt 0.000000 0.000000
vt 0.500000 0.000000
vt 0.998535 0.000000
vt 0.500000 0.498535
vt 0.500000 0.500000
vt 0.998535 0.500000
vt 0.500000 0.998535
vt 0.000000 0.500000
vt 2596197550728172700000000000000000000.000000 -0.000000
vt 0.000000 0.000000
f 1/3/1 3/2/3 4/1/4
f 1/6/1 2/5/2 3/4/3
f 4/9/4 2/8/2 1/7/1
f 3/12/3 2/11/2 4/10/4
