v -1.657055 3.628431 0.478793
v -1.565079 3.908938 0.425310
v -1.749147 3.772003 0.231995
v -1.463666 3.682973 0.256019
vn -0.263017 -0.651305 0.711775
vn 0.237645 0.875542 0.420655
vn -0.764285 0.130172 -0.631604
vn 0.789651 -0.354420 -0.500838
vt 0.498535 0.000000
vt 0.498535 0.498535
vt 0.000000 0.000000
vt 0.500000 0.000000
vt 0.998535 0.000000
vt 0.500000 0.498535
vt 0.500000 0.500000
vt 0.998535 0.500000
vt 0.500000 0.998535
vt 0.000000 0.500000
vt 2596197550728172700000000000000000000.000000 -0.000000
vt 0.000000 0.000000
f 1/3/1 3/2/3 4/1/4
f 1/6/1 2/5/2 3/4/3
f 4/9/4 2/8/2 1/7/1
f 3/12/3 2/11/2 4/10/4
