v -2.229370 3.953948 0.292453
v -2.462245 3.933807 0.104389
v -2.210052 4.070624 0.016743
v -2.386961 4.199320 0.222029
vn 0.505064 -0.465276 0.726931
vn -0.762531 -0.574893 -0.296725
vn 0.610228 0.169832 -0.773808
vn -0.352744 0.870353 0.343596
vt 0.498535 0.000000
vt 0.498535 0.498535
vt 0.000000 0.000000
vt 0.500000 0.000000
vt 0.998535 0.000000
vt 0.500000 0.498535
vt 0.500000 0.500000
vt 0.998535 0.500000
vt 0.500000 0.998535
vt 0.000000 0.500000
vt 2596197550728172700000000000000000000.000000 -0.000000
vt 0.000000 0.000000
f 1/3/1 3/2/3 4/1/4
f 1/6/1 2/5/2 3/4/3
f 4/9/4 2/8/2 1/7/1
f 3/12/3 2/11/2 4/10/4
