v -2.511538 3.856690 -0.641277
v -2.514730 3.983584 -0.369450
v -2.581918 3.692803 -0.400049
v -2.772257 3.902059 -0.499977
vn 0.454921 -0.011411 -0.890459
vn 0.437513 0.679328 0.589148
vn 0.071809 -0.903476 0.422581
vn -0.964257 0.235568 -0.121309
vt 0.498535 0.000000
vt 0.498535 0.498535
vt 0.000000 0.000000
vt 0.500000 0.000000
vt 0.998535 0.000000
vt 0.500000 0.498535
vt 0.500000 0.500000
vt 0.998535 0.500000
vt 0.500000 0.998535
vt 0.000000 0.500000
vt 2382680980335055900000000000000000000.000000 -0.000000
vt 0.000000 0.000000
f 1/3/1 3/2/3 4/1/4
f 1/6/1 2/5/2 3/4/3
f 4/9/4 2/8/2 1/7/1
f 3/12/3 2/11/2 4/10/4
