v -2.693133 3.982521 -0.691469
v -2.549839 4.049957 -0.436672
v -2.589921 3.763095 -0.514825
v -2.824104 3.928759 -0.426979
vn -0.157211 0.279979 -0.947046
vn 0.622735 0.647069 0.439890
vn 0.404569 -0.914393 0.014465
vn -0.870124 -0.012645 0.492671
vt 0.498535 0.000000
vt 0.498535 0.498535
vt 0.000000 0.000000
vt 0.500000 0.000000
vt 0.998535 0.000000
vt 0.500000 0.498535
vt 0.500000 0.500000
vt 0.998535 0.500000
vt 0.500000 0.998535
vt 0.000000 0.500000
vt 2382680980335055900000000000000000000.000000 -0.000000
vt 0.000000 0.000000
f 1/3/1 3/2/3 4/1/4
f 1/6/1 2/5/2 3/4/3
f 4/9/4 2/8/2 1/7/1
f 3/12/3 2/11/2 4/10/4
