v -1.813089 3.805717 -0.291678
v -1.518492 3.752832 -0.312114
v -1.711192 3.594819 -0.479142
v -1.698532 3.550774 -0.182658
vn -0.695433 0.705882 0.134553
vn 0.908135 0.418027 0.023317
vn -0.140789 -0.442083 -0.885856
vn -0.071876 -0.681828 0.727973
vt 0.498535 0.000000
vt 0.498535 0.498535
vt 0.000000 0.000000
vt 0.500000 0.000000
vt 0.998535 0.000000
vt 0.500000 0.498535
vt 0.500000 0.500000
vt 0.998535 0.500000
vt 0.500000 0.998535
vt 0.000000 0.500000
vt 2596432066089214900000000000000000000.000000 -0.000000
vt 0.000000 0.000000
f 1/3/1 3/2/3 4/1/4
f 1/6/1 2/5/2 3/4/3
f 4/9/4 2/8/2 1/7/1
f 3/12/3 2/11/2 4/10/4
