v -2.332805 3.724578 -0.232853
v -2.173595 3.975729 -0.193144
v -2.200089 3.856688 -0.467237
v -2.034011 3.718500 -0.259095
vn -0.803853 -0.513270 0.300625
vn 0.062764 0.853818 0.516774
vn -0.081454 0.205844 -0.975189
vn 0.822554 -0.546360 0.157785
vt 0.498535 0.000000
vt 0.498535 0.498535
vt 0.000000 0.000000
vt 0.500000 0.000000
vt 0.998535 0.000000
vt 0.500000 0.498535
vt 0.500000 0.500000
vt 0.998535 0.500000
vt 0.500000 0.998535
vt 0.000000 0.500000
vt 2596432066089214900000000000000000000.000000 -0.000000
vt 0.000000 0.000000
f 1/3/1 3/2/3 4/1/4
f 1/6/1 2/5/2 3/4/3
f 4/9/4 2/8/2 1/7/1
f 3/12/3 2/11/2 4/10/4
