v -3.061328 4.207057 -0.289585
v -2.841539 4.021495 -0.204370
v -2.814301 4.179958 -0.457652
v -3.010994 3.953937 -0.442540
vn -0.703742 0.633860 0.320888
vn 0.492599 -0.376234 0.784726
vn 0.640861 0.486348 -0.593938
vn -0.429758 -0.743972 -0.511677
vt 0.498535 0.000000
vt 0.498535 0.498535
vt 0.000000 0.000000
vt 0.500000 0.000000
vt 0.998535 0.000000
vt 0.500000 0.498535
vt 0.500000 0.500000
vt 0.998535 0.500000
vt 0.500000 0.998535
vt 0.000000 0.500000
vt 2382680980335055900000000000000000000.000000 -0.000000
vt 0.000000 0.000000
f 1/3/1 3/2/3 4/1/4
f 1/6/1 2/5/2 3/4/3
f 4/9/4 2/8/2 1/7/1
f 3/12/3 2/11/2 4/10/4
