v -3.060380 4.206917 -0.287901
v -2.842806 4.018898 -0.202386
v -2.811874 4.179709 -0.453757
v -3.010338 3.954993 -0.442914
vn -0.702340 0.635724 0.320271
vn 0.481937 -0.387743 0.785743
vn 0.650308 0.487616 -0.582521
vn -0.429945 -0.735596 -0.523494
vt 0.498535 0.000000
vt 0.498535 0.498535
vt 0.000000 0.000000
vt 0.500000 0.000000
vt 0.998535 0.000000
vt 0.500000 0.498535
vt 0.500000 0.500000
vt 0.998535 0.500000
vt 0.500000 0.998535
vt 0.000000 0.500000
vt 2382680980335055900000000000000000000.000000 -0.000000
vt 0.000000 0.000000
f 1/3/1 3/2/3 4/1/4
f 1/6/1 2/5/2 3/4/3
f 4/9/4 2/8/2 1/7/1
f 3/12/3 2/11/2 4/10/4
