v -1.651108 3.614612 0.461602
v -1.764790 3.871983 0.565721
v -1.799944 3.798399 0.277013
v -1.529176 3.876307 0.380055
vn 0.191299 -0.956451 0.220470
vn -0.427472 0.444478 0.787215
vn -0.618829 0.043939 -0.784296
vn 0.855007 0.468030 -0.223408
vt 0.498535 0.000000
vt 0.498535 0.498535
vt 0.000000 0.000000
vt 0.500000 0.000000
vt 0.998535 0.000000
vt 0.500000 0.498535
vt 0.500000 0.500000
vt 0.998535 0.500000
vt 0.500000 0.998535
vt 0.000000 0.500000
vt 2596197550728172700000000000000000000.000000 -0.000000
vt 0.000000 0.000000
f 1/3/1 3/2/3 4/1/4
f 1/6/1 2/5/2 3/4/3
f 4/9/4 2/8/2 1/7/1
f 3/12/3 2/11/2 4/10/4
