v 0.226890 3.146538 -0.374945
v 0.367428 2.894593 -0.457255
v 0.163853 3.019052 -0.639099
v 0.076549 2.887082 -0.384217
vn 0.099121 0.869391 0.484081
vn 0.864115 -0.502002 0.036051
vn -0.243998 0.175463 -0.953770
vn -0.719210 -0.542878 0.433614
vt 0.498535 0.000000
vt 0.498535 0.498535
vt 0.000000 0.000000
vt 0.500000 0.000000
vt 0.998535 0.000000
vt 0.500000 0.498535
vt 0.500000 0.500000
vt 0.998535 0.500000
vt 0.500000 0.998535
vt 0.000000 0.500000
vt 2596432066089214900000000000000000000.000000 -0.000000
vt 0.000000 0.000000
f 1/3/1 3/2/3 4/1/4
f 1/6/1 2/5/2 3/4/3
f 4/9/4 2/8/2 1/7/1
f 3/12/3 2/11/2 4/10/4
