v -1.855211 3.773656 -0.292415
v -1.555705 3.788305 -0.283297
v -1.690922 3.598972 -0.472688
v -1.697315 3.545919 -0.177481
vn -0.845991 0.527680 0.076503
vn 0.784297 0.607427 0.126138
vn 0.048264 -0.423163 -0.904767
vn 0.013470 -0.711935 0.702116
vt 0.498535 0.000000
vt 0.498535 0.498535
vt 0.000000 0.000000
vt 0.500000 0.000000
vt 0.998535 0.000000
vt 0.500000 0.498535
vt 0.500000 0.500000
vt 0.998535 0.500000
vt 0.500000 0.998535
vt 0.000000 0.500000
vt 2596432066089214900000000000000000000.000000 -0.000000
vt 0.000000 0.000000
f 1/3/1 3/2/3 4/1/4
f 1/6/1 2/5/2 3/4/3
f 4/9/4 2/8/2 1/7/1
f 3/12/3 2/11/2 4/10/4
