v -3.020956 4.221984 -0.259572
v -2.856721 3.983767 -0.180316
v -2.776154 4.149444 -0.417094
v -3.020609 3.976130 -0.431486
vn -0.557087 0.757463 0.340449
vn 0.336851 -0.539237 0.771852
vn 0.775399 0.362604 -0.516986
vn -0.555200 -0.580819 -0.595317
vt 0.498535 0.000000
vt 0.498535 0.498535
vt 0.000000 0.000000
vt 0.500000 0.000000
vt 0.998535 0.000000
vt 0.500000 0.498535
vt 0.500000 0.500000
vt 0.998535 0.500000
vt 0.500000 0.998535
vt 0.000000 0.500000
vt 2382680980335055900000000000000000000.000000 -0.000000
vt 0.000000 0.000000
f 1/3/1 3/2/3 4/1/4
f 1/6/1 2/5/2 3/4/3
f 4/9/4 2/8/2 1/7/1
f 3/12/3 2/11/2 4/10/4
