v -2.869551 4.184454 -0.459519
v -2.801331 4.097368 -0.180657
v -2.653562 3.981174 -0.414467
v -2.940634 3.908046 -0.367086
vn -0.290008 0.771285 -0.566581
vn 0.081286 0.297237 0.951338
vn 0.885637 -0.335219 -0.321365
vn -0.676948 -0.733294 -0.063415
vt 0.498535 0.000000
vt 0.498535 0.498535
vt 0.000000 0.000000
vt 0.500000 0.000000
vt 0.998535 0.000000
vt 0.500000 0.498535
vt 0.500000 0.500000
vt 0.998535 0.500000
vt 0.500000 0.998535
vt 0.000000 0.500000
vt 2382680980335055900000000000000000000.000000 -0.000000
vt 0.000000 0.000000
f 1/3/1 3/2/3 4/1/4
f 1/6/1 2/5/2 3/4/3
f 4/9/4 2/8/2 1/7/1
f 3/12/3 2/11/2 4/10/4
